# xmcd CD database file
#
# Track frame offsets:
#	150
#	27467
#	55465
#	76867
#	99372
#	128952
#	145672
#	165567
#	184120
#
# Disc length: 2682 seconds
#
# Revision: 0
# Processed by: cddbd v1.5PL3 Copyright (c) Steve Scherf et al.
# Submitted via: CDex 1.51
#
DISCID=710a7809
DTITLE=Herbie Mann - When Lights are Low
DYEAR=1988
DGENRE=Jazz
TTITLE0=when lights are low
TTITLE1=little niles
TTITLE2=old honkie tonk piano roll blues
TTITLE3=Pretty baby
TTITLE4=beautiful love
TTITLE5=hip Scotch
TTITLE6=song for Ruth
TTITLE7=noga's nuggets
TTITLE8=a ritual
EXTD=YEAR: 1988
EXTT0=
EXTT1=
EXTT2=
EXTT3=
EXTT4=
EXTT5=
EXTT6=
EXTT7=
EXTT8=
PLAYORDER=
